<svg width="40" height="40" viewBox="0 0 47 68" fill="none" xmlns="http://www.w3.org/2000/svg">
<g id="Property 1=Default">
<path id="Subtract" fill-rule="evenodd" clip-rule="evenodd" d="M43.3874 35.2589C45.6758 31.7102 47 27.5065 47 23C47 10.2975 36.4787 0 23.5 0C10.5213 0 0 10.2975 0 23C0 27.5065 1.32423 31.7103 3.61262 35.2589L3.64085 35.3333L23.5 68L43.3592 35.3333L43.3874 35.2589Z" fill="#F59100"/>
<ellipse id="Ellipse 2" cx="23" cy="22.5" rx="14" ry="13.5" fill="#4F5D5B"/>
<path id="Ellipse 1" d="M37.5 21C37.5 27.8859 31.6977 33.5 24.5 33.5C17.3023 33.5 11.5 27.8859 11.5 21C11.5 14.1141 17.3023 8.5 24.5 8.5C31.6977 8.5 37.5 14.1141 37.5 21Z" fill="white" stroke="#A3A3A3"/>
</g>
</svg>
